<svg enable-background="new 0 0 36 60" height="512" viewBox="0 0 36 60" width="512" xmlns="http://www.w3.org/2000/svg"><path d="m18 30c-.153 0-.306-.035-.447-.105l-6-3c-.339-.17-.553-.516-.553-.895v-8c0-.347.18-.668.474-.851.295-.184.664-.198.973-.044l6 3c.339.17.553.516.553.895v8c0 .347-.18.668-.474.851-.161.099-.343.149-.526.149zm-5-4.618 4 2v-5.764l-4-2z"/><path d="m18 22c-.153 0-.307-.035-.447-.105l-6-3c-.339-.17-.553-.516-.553-.895s.214-.725.553-.895l6-3c.281-.141.613-.141.895 0l6 3c.338.17.552.516.552.895s-.214.725-.553.895l-6 3c-.14.07-.294.105-.447.105zm-3.764-4 3.764 1.882 3.764-1.882-3.764-1.882z"/><path d="m18 30c-.183 0-.365-.05-.526-.149-.294-.183-.474-.504-.474-.851v-8c0-.379.214-.725.553-.895l6-3c.31-.154.678-.14.973.044.294.183.474.504.474.851v8c0 .379-.214.725-.553.895l-6 3c-.141.07-.294.105-.447.105zm1-8.382v5.764l4-2v-5.764z"/><path d="m24 41c-.153 0-.306-.035-.447-.105l-6-3c-.339-.17-.553-.516-.553-.895v-8c0-.347.18-.668.474-.851.295-.184.664-.199.973-.044l6 3c.339.17.553.516.553.895v8c0 .347-.18.668-.474.851-.161.099-.343.149-.526.149zm-5-4.618 4 2v-5.764l-4-2z"/><path d="m24 33c-.153 0-.307-.035-.447-.105l-6-3c-.339-.17-.553-.516-.553-.895s.214-.725.553-.895l6-3c.281-.141.613-.141.895 0l6 3c.338.17.552.516.552.895s-.214.725-.553.895l-6 3c-.14.07-.294.105-.447.105zm-3.764-4 3.764 1.882 3.764-1.882-3.764-1.882z"/><path d="m24 41c-.183 0-.365-.05-.526-.149-.294-.183-.474-.504-.474-.851v-8c0-.379.214-.725.553-.895l6-3c.31-.155.678-.14.973.044.294.183.474.504.474.851v8c0 .379-.214.725-.553.895l-6 3c-.141.07-.294.105-.447.105zm1-8.382v5.764l4-2v-5.764z"/><path d="m12 41c-.153 0-.306-.035-.447-.105l-6-3c-.339-.17-.553-.516-.553-.895v-8c0-.347.18-.668.474-.851.295-.184.664-.199.973-.044l6 3c.339.17.553.516.553.895v8c0 .347-.18.668-.474.851-.161.099-.343.149-.526.149zm-5-4.618 4 2v-5.764l-4-2z"/><path d="m12 33c-.153 0-.307-.035-.447-.105l-6-3c-.339-.17-.553-.516-.553-.895s.214-.725.553-.895l6-3c.281-.141.613-.141.895 0l6 3c.338.17.552.516.552.895s-.214.725-.553.895l-6 3c-.14.07-.294.105-.447.105zm-3.764-4 3.764 1.882 3.764-1.882-3.764-1.882z"/><path d="m12 41c-.183 0-.365-.05-.526-.149-.294-.183-.474-.504-.474-.851v-8c0-.379.214-.725.553-.895l6-3c.31-.155.678-.14.973.044.294.183.474.504.474.851v8c0 .379-.214.725-.553.895l-6 3c-.141.07-.294.105-.447.105zm1-8.382v5.764l4-2v-5.764z"/><path d="m21 6h-6c-.552 0-1-.447-1-1s.448-1 1-1h6c.552 0 1 .447 1 1s-.448 1-1 1z"/><path d="m33.002 60h-30.004c-1.653 0-2.998-1.345-2.998-2.997v-10.003c0-.553.448-1 1-1h34c.552 0 1 .447 1 1v10.003c0 1.652-1.345 2.997-2.998 2.997zm-31.002-12v9.003c0 .55.447.997.998.997h30.005c.55 0 .997-.447.997-.997v-9.003z"/><path d="m18 57c-2.206 0-4-1.794-4-4s1.794-4 4-4 4 1.794 4 4-1.794 4-4 4zm0-6c-1.103 0-2 .897-2 2s.897 2 2 2 2-.897 2-2-.897-2-2-2z"/><path d="m33.002 60h-30.004c-1.653 0-2.998-1.345-2.998-2.997v-54.001c0-1.655 1.347-3.002 3.001-3.002h29.997c1.655 0 3.002 1.347 3.002 3.002v54.001c0 1.652-1.345 2.997-2.998 2.997zm-30.001-58c-.552 0-1.001.449-1.001 1.002v54.001c0 .55.447.997.998.997h30.005c.55 0 .997-.447.997-.997v-54.001c0-.553-.449-1.002-1.001-1.002z"/></svg>