<svg id="Layer_3" enable-background="new 0 0 64 64" height="512" viewBox="0 0 64 64" width="512" xmlns="http://www.w3.org/2000/svg"><g><path d="m45 25.051v-23.051c0-.553-.448-1-1-1h-29c-.251 0-.494.095-.678.266l-13 12c-.205.188-.322.455-.322.734v44c0 .553.448 1 1 1h30.381c3.216 2.497 7.241 4 11.619 4 10.477 0 19-8.523 19-19 0-10.139-7.989-18.424-18-18.949zm-31-20.767v9.716h-10.526zm-11 11.716h12c.552 0 1-.447 1-1v-12h27v22.051c-10.011.525-18 8.81-18 18.949 0 5.03 1.979 9.598 5.182 13h-27.182zm41 45c-9.374 0-17-7.626-17-17s7.626-17 17-17 17 7.626 17 17-7.626 17-17 17z"/><path d="m44 29c-8.271 0-15 6.729-15 15s6.729 15 15 15 15-6.729 15-15-6.729-15-15-15zm12.949 16c-.217 2.833-1.341 5.411-3.088 7.447l-1.154-1.154-1.414 1.414 1.154 1.154c-2.036 1.747-4.615 2.871-7.447 3.088v-1.949h-2v1.949c-2.833-.217-5.411-1.341-7.447-3.088l1.154-1.154-1.414-1.414-1.154 1.154c-1.747-2.036-2.871-4.615-3.088-7.447h1.949v-2h-1.949c.217-2.833 1.341-5.411 3.088-7.447l1.154 1.154 1.414-1.414-1.154-1.154c2.036-1.747 4.615-2.871 7.447-3.088v1.949h2v-1.949c2.833.217 5.411 1.341 7.447 3.088l-1.154 1.154 1.414 1.414 1.154-1.154c1.747 2.036 2.871 4.615 3.088 7.447h-1.949v2z"/><path d="m45 35h-2v9c0 .553.448 1 1 1h5v-2h-4z"/><path d="m16 43h-10c-.552 0-1 .447-1 1v10c0 .553.448 1 1 1h10c.552 0 1-.447 1-1v-10c0-.553-.448-1-1-1zm-9 10v-8h6.277l-2.342 4.099-1.103-1.653-1.664 1.109 2 3c.186.278.499.445.832.445.011 0 .023 0 .034-.001.347-.012.662-.202.834-.503l3.132-5.481v6.985z"/><path d="m16 29h-10c-.552 0-1 .447-1 1v10c0 .553.448 1 1 1h10c.552 0 1-.447 1-1v-10c0-.553-.448-1-1-1zm-9 10v-8h6.277l-2.342 4.099-1.103-1.653-1.664 1.109 2 3c.186.278.499.445.832.445.011 0 .023 0 .034-.001.347-.012.662-.202.834-.503l3.132-5.481v6.985z"/><path d="m5 25h2v2h-2z"/><path d="m9 25h19v2h-19z"/><path d="m26 21h2v2h-2z"/><path d="m5 21h19v2h-19z"/><path d="m29 11.414v3.586c0 .553.448 1 1 1h8c.552 0 1-.447 1-1v-3.586l1.293 1.293 1.414-1.414-7-7c-.391-.391-1.023-.391-1.414 0l-7 7 1.414 1.414zm5-5 3 3v4.586h-6v-4.586z"/></g></svg>